<?xml version="1.0" encoding="utf-8"?>
<!-- Generator: Adobe Illustrator 28.1.0, SVG Export Plug-In . SVG Version: 6.00 Build 0)  -->
<svg version="1.1" id="Layer_1" xmlns="http://www.w3.org/2000/svg" xmlns:xlink="http://www.w3.org/1999/xlink" x="0px" y="0px"
	 viewBox="0 0 24 24" style="enable-background:new 0 0 24 24;" xml:space="preserve">
<style type="text/css">
	.st0{fill:#FFDE61;}
	.st1{fill:none;stroke:#000000;stroke-width:0.25;stroke-miterlimit:10;}
</style>
<g>
	
		<image style="overflow:visible;opacity:0.75;" width="102" height="102" xlink:href="81D92B4A.png"  transform="matrix(0.24 0 0 0.24 -1.32 0.84)">
	</image>
	<g>
		<path class="st0" d="M5,21c-0.5,0-1-0.2-1.4-0.6S3,19.5,3,19V5c0-0.5,0.2-1,0.6-1.4S4.5,3,5,3h14c0.6,0,1,0.2,1.4,0.6S21,4.4,21,5
			v14c0,0.5-0.2,1-0.6,1.4S19.6,21,19,21H5z M5,19h14V5H5V19z M5,5v14V5z"/>
		<path class="st1" d="M5,21c-0.5,0-1-0.2-1.4-0.6S3,19.5,3,19V5c0-0.5,0.2-1,0.6-1.4S4.5,3,5,3h14c0.6,0,1,0.2,1.4,0.6S21,4.4,21,5
			v14c0,0.5-0.2,1-0.6,1.4S19.6,21,19,21H5z M5,19h14V5H5V19z M5,5v14V5z"/>
	</g>
</g>
</svg>
